<?xml version="1.0" encoding="utf-8"?><svg xml:space="preserve" viewBox="0 0 100 100" y="0" x="0" xmlns="http://www.w3.org/2000/svg" id="圖層_1" version="1.1" width="200px" height="200px" xmlns:xlink="http://www.w3.org/1999/xlink" style="width:100%;height:100%;background-size:initial;background-repeat-y:initial;background-repeat-x:initial;background-position-y:initial;background-position-x:initial;background-origin:initial;background-image:initial;background-clip:initial;background-attachment:initial;animation-play-state:paused" ><g class="ldl-scale" style="transform-origin:50% 50%;transform:rotate(0deg) scale(0.8, 0.8);animation-play-state:paused" ><path fill="#e0e0e0" d="M76.625 32.5h-62.25a.125.125 0 0 0-.125.125v34.75c0 .069.056.125.125.125h62.25a.125.125 0 0 0 .125-.125v-34.75a.125.125 0 0 0-.125-.125z" style="fill:rgb(224, 224, 224);animation-play-state:paused" ></path>
<path d="M18.25 36.5v27h13.616l-8.403-27z" fill="#e15b64" style="fill:rgb(225, 91, 100);animation-play-state:paused" ></path>
<path fill="#333" d="M88.125 40H82.75v-7.375a6.132 6.132 0 0 0-6.125-6.125h-62.25a6.132 6.132 0 0 0-6.125 6.125v34.75a6.132 6.132 0 0 0 6.125 6.125h62.25a6.132 6.132 0 0 0 6.125-6.125V60h5.375a3.625 3.625 0 0 0 3.625-3.625v-12.75A3.625 3.625 0 0 0 88.125 40zM76.75 67.375a.125.125 0 0 1-.125.125h-62.25a.125.125 0 0 1-.125-.125v-34.75c0-.069.056-.125.125-.125h62.25c.069 0 .125.056.125.125v34.75z" style="fill:rgb(51, 51, 51);animation-play-state:paused" ></path>
<metadata xmlns:d="https://loading.io/stock/" style="animation-play-state:paused" ><d:name style="animation-play-state:paused" >battery</d:name>
<d:tags style="animation-play-state:paused" >charge,energy,low power,drain,off,empty,electricity,battery,camera</d:tags>
<d:license style="animation-play-state:paused" >by</d:license>
<d:slug style="animation-play-state:paused" >odhs4s</d:slug></metadata></g><!-- generated by https://loading.io/ --></svg>