<?xml version="1.0" encoding="UTF-8" standalone="no"?>
<!-- Created with Inkscape (http://www.inkscape.org/) -->

<svg
   width="113.64899mm"
   height="132.29167mm"
   viewBox="0 0 113.64899 132.29167"
   version="1.1"
   id="svg5"
   inkscape:version="1.1.1 (3bf5ae0d25, 2021-09-20)"
   sodipodi:docname="téléthon.svg"
   xmlns:inkscape="http://www.inkscape.org/namespaces/inkscape"
   xmlns:sodipodi="http://sodipodi.sourceforge.net/DTD/sodipodi-0.dtd"
   xmlns="http://www.w3.org/2000/svg"
   xmlns:svg="http://www.w3.org/2000/svg">
  <sodipodi:namedview
     id="namedview7"
     pagecolor="#505050"
     bordercolor="#ffffff"
     borderopacity="1"
     inkscape:pageshadow="0"
     inkscape:pageopacity="0"
     inkscape:pagecheckerboard="1"
     inkscape:document-units="mm"
     showgrid="false"
     fit-margin-top="0"
     fit-margin-left="0"
     fit-margin-right="0"
     fit-margin-bottom="0"
     inkscape:zoom="0.90583672"
     inkscape:cx="29.25472"
     inkscape:cy="188.22377"
     inkscape:window-width="1920"
     inkscape:window-height="1009"
     inkscape:window-x="1912"
     inkscape:window-y="-8"
     inkscape:window-maximized="1"
     inkscape:current-layer="layer1" />
  <defs
     id="defs2" />
  <g
     inkscape:label="Calque 1"
     inkscape:groupmode="layer"
     id="layer1"
     transform="translate(-80.120083,-46.469283)">
    <path
       d="m 131.16938,88.567046 c 1.88537,0.02994 3.77072,0.260004 5.78608,0.748 -2.01536,-0.455001 -3.90071,-0.683002 -5.78608,-0.683002 z m 16.0905,53.147314 c 3.12059,-2.1129 5.52603,-4.5183 7.41135,-7.0538 0.42263,-0.813 0.8127,-1.6903 1.17026,-2.633 l 0.13005,-0.29299 c 0.48759,-1.62531 1.0077,-3.2832 1.33278,-4.9735 0.22737,-1.5278 0.32507,-3.08801 0.32507,-4.64831 v -0.16301 l 0.3576,-0.0299 0.0329,0.16301 c 0.16231,1.5602 -0.0329,3.21811 -0.32509,4.74581 -0.19498,1.2678 -0.52011,2.4705 -0.87771,3.7057 -0.13006,0.455 -0.29269,0.878 -0.45509,1.3328 l -0.098,0.325 c -0.0329,0.07 -0.0649,0.16301 -0.0649,0.22801 1.88535,-3.2181 2.95808,-6.6313 3.44565,-10.0769 0.0329,-1.5603 -0.098,-3.1856 -0.29239,-4.9084 -0.65008,-5.03841 -1.98285,-9.13421 -4.51832,-13.55501 -1.04021,-1.7878 -2.14542,-3.7382 -3.6082,-5.2335 -0.45509,-0.455 -0.91022,-0.878 -1.36524,-1.300202 -0.68263,-0.649996 -1.33273,-1.365299 -1.98288,-2.080398 l -0.84512,-0.943001 0.48763,0.292994 c -0.16272,-0.129992 -0.32509,-0.292994 -0.45512,-0.423 l -0.19498,0.228012 -0.2927,-0.228012 c -2.82802,-2.340401 -5.72104,-3.575702 -9.29672,-4.420802 -1.78779,-0.422999 -3.47812,-0.65 -5.13593,-0.747999 v 0.02994 c 1.33274,0.06999 2.69799,0.260004 4.09577,0.519998 l 0.19498,0.02994 -0.0649,0.358002 -0.19497,-0.02994 c -3.86823,-0.779999 -7.34637,-0.714999 -11.21457,-0.02994 -4.03075,0.682999 -7.28136,1.820301 -10.72701,3.835702 -0.2275,0.129991 -0.4876,0.292991 -0.7151,0.422999 -3.38064,2.145399 -5.8836,4.323299 -7.80145,7.898897 -2.79554,5.20101 -2.08041,13.45751 -2.82803,19.34111 -0.3251,2.5355 -0.7476,4.7459 -1.69032,6.9238 -0.3251,0.748 -0.7151,1.4953 -1.17022,2.2754 -0.877703,1.3978 -1.787826,2.4055 -3.088067,3.4131 -1.560301,1.1703 -3.02308,1.8204 -4.875901,2.40551 -0.292508,0.1 -0.520098,0.22801 -0.7801,0.423 -0.227499,0.22801 -0.3901,0.423 -0.5201,0.748 -0.129888,0.29299 -0.162495,0.553 -0.129888,0.878 0.03298,0.325 0.09699,0.553 0.260093,0.84499 0.09801,0.16302 0.162495,0.293 0.260095,0.42301 1.040179,0.975 2.43795,1.9179 4.095752,2.828 0.585098,0.325 1.17022,0.618 1.78784,0.943 4.550826,2.1454 8.776636,3.3156 13.685026,4.2908 8.87415,1.52779 16.96813,1.7878 25.19217,-0.455 2.37294,-0.845 4.68084,-1.9503 6.95627,-3.3156 5.36351,-3.28311 9.16671,-6.8263 11.24712,-12.90491 l 0.0649,-0.16202 c 0.4226,-1.8204 0.91021,-3.7057 1.17021,-5.5586 0.19498,-2.1454 0,-4.1607 -0.2924,-6.3061 l -0.0329,-0.195 0.35761,-0.07 0.0329,0.195 c 0.39012,2.1779 0.5851,4.1932 0.29269,6.4037 -0.0329,0.325 -0.0649,0.65 -0.098,1.0076 -0.19498,1.5928 -0.55262,3.0881 -1.07271,4.6159 l -0.0329,0.195 c -0.098,0.39 -0.19497,0.748 -0.29269,1.1052 l 0.16231,0.1 -0.0649,0.162 c -0.39012,0.91001 -0.8126,1.7553 -1.30023,2.568 -0.94272,1.7228 -2.21042,3.2181 -3.67321,4.64831 -0.74759,0.65 -1.39774,1.3003 -2.08038,1.8854 z m 7.11882,-6.5662 c -2.08038,2.763 -4.45332,4.8434 -7.34639,6.7287 -0.52009,0.423 -1.04016,0.845 -1.59279,1.2353 -0.45509,0.358 -0.94268,0.715 -1.43024,1.0402 3.41311,-1.8529 6.20867,-3.8033 8.58161,-6.3062 0.6826,-0.813 1.26772,-1.7228 1.78781,-2.698 z m 5.13595,-11.6697 c -0.45508,2.6005 -1.33277,5.136 -2.698,7.899 -0.26005,0.488 -0.5201,0.943 -0.8126,1.3977 -0.2274,0.65 -0.45511,1.2678 -0.71511,1.8529 0.65012,-0.943 1.30022,-1.9504 1.88536,-3.0231 0.74762,-1.5278 1.36526,-2.9905 1.82034,-4.4533 0.29239,-1.2352 0.45509,-2.43791 0.5201,-3.6732 z m -7.37887,-28.507812 c 1.39776,1.852899 2.568,3.900801 3.6407,5.916102 2.50295,5.266 3.64066,9.5893 4.09575,14.66031 0.0329,0.61799 0.0649,1.20269 0.0649,1.7878 0.098,0.715 0.16231,1.4628 0.22738,2.1779 0.0329,0.55299 0.0649,1.07269 0.0649,1.56029 0.16231,-1.7553 0.13006,-3.5757 0.0329,-5.5586 -0.16231,-1.6578 -0.39008,-3.1855 -0.68259,-4.6808 l -0.32509,-1.2352 c -0.16231,-0.585 -0.4226,-1.3978 -0.48761,-2.0479 -0.68259,-2.2429 -1.5603,-4.4534 -2.73051,-6.8263 -0.29267,-0.52 -0.58508,-1.072701 -0.87767,-1.592801 -0.91021,-1.3327 -1.85286,-2.698001 -2.14541,-3.2506 -0.29267,-0.260004 -0.5851,-0.585002 -0.87769,-0.910003 z M 131.98206,83.301043 c -0.8127,0.39 -2.14541,0.813 -3.57567,1.235201 0.3901,0.02994 0.78012,0.05998 1.17021,0.09999 0.5201,0.02994 1.00768,0.06999 1.46277,0.129992 1.82034,-0.390001 3.73819,-0.650001 5.8186,-0.878 0,0 0.35759,-0.02994 0.35759,-0.02994 -0.0331,0 -0.3901,0.129992 -0.35759,0.09999 -1.98288,0.39 -3.54317,0.618002 -5.03846,0.878002 0.4226,0.02994 0.81262,0.06999 1.17021,0.09999 1.20274,-0.129992 2.43794,-0.228014 3.77072,-0.292992 0,0 0.4226,0 0.4226,0 -0.0331,0 -0.45511,0.06999 -0.45511,0.06999 -0.97519,0.09999 -1.88536,0.194998 -2.698,0.292991 5.88358,0.39 4.48582,0.161999 12.64485,1.820301 -3.6082,-0.422001 -6.37117,-0.975001 -10.10938,-1.0727 -0.8127,0 -1.59282,0 -2.37294,0.02994 5.13593,0.389998 10.14189,2.080399 14.30264,5.428601 0.91017,0.715001 1.75531,1.527701 2.53545,2.405399 l 0.0649,-0.06999 c -0.78019,-0.844999 -1.6253,-1.625301 -2.56795,-2.340399 0.8126,0.650001 1.6578,1.495198 2.47045,2.4379 l -0.0329,0.02994 0.13005,0.129992 c 0.19498,0.194998 0.39008,0.390001 0.58508,0.618002 4.06324,5.0709 7.70394,13.294907 8.15903,21.941507 -0.7477,-4.7134 -2.04788,-8.6141 -4.55087,-12.8074 -1.78782,-2.9905 -4.06324,-6.598708 -7.08628,-8.484007 l 0.13005,-0.130013 -0.13005,-0.129991 c -3.08809,-3.2181 -6.50123,-4.940902 -10.75951,-6.078602 -2.11289,-0.552998 -4.09577,-0.844999 -6.07862,-0.943 1.59277,0.02994 3.18557,0.194998 4.90838,0.488001 l 0.19498,0.02994 0.0649,-0.356999 -0.19497,-0.02994 c -0.91019,-0.163012 -1.82037,-0.292992 -2.69801,-0.389999 v -0.358012 h -0.0649 v -0.260002 h -0.19497 c -2.37294,-0.02994 -4.51831,0.09999 -6.76125,0.487998 -0.71509,0.09999 -1.46277,0.228014 -2.2104,0.358001 -4.3233,0.877998 -7.83395,2.1779 -11.53965,4.485899 -0.1624,0.09999 -0.3251,0.194998 -0.5201,0.325001 -3.67318,2.275401 -6.4362,4.745903 -8.54909,8.581605 -0.32509,0.618 -0.61759,1.2352 -0.8777,1.8854 0.1624,-1.1052 0.3901,-2.2105 0.7801,-3.2832 1.62531,-3.868205 3.86824,-6.891203 7.08632,-9.556703 0.12989,-0.129992 0.7477,-0.650001 0.3251,0.454998 0,0 -0.2926,0.39 -0.2926,0.39 -2.24294,2.828101 -3.96575,4.615901 -5.59105,7.606402 2.11291,-3.283099 5.46103,-6.208602 9.45925,-8.419003 1.20272,-0.813 2.50296,-1.5928 3.21811,-1.755299 -0.12989,0.09999 -0.3576,0.228014 -0.3576,0.325 0.4876,-0.228014 1.00769,-0.422999 1.52778,-0.618001 0.9427,-0.488 1.91786,-0.975001 2.95805,-1.430299 -0.0649,-0.05998 -0.19498,-0.129992 -0.35762,-0.194998 -0.0649,-0.617998 1.0402,-1.202701 1.46279,-1.3652 1.49526,-0.584998 3.08806,-0.715001 4.68086,-0.650001 1.33275,-0.454998 2.69801,-0.844998 4.16077,-1.235197 z"
       id="path5334"
       fill="#f9c81d"
       style="fill-rule:nonzero;stroke:none;stroke-width:2.64584" />
    <path
       d="m 191.63062,87.559348 c -0.8127,-1.592805 -2.24293,-2.698004 -4.16077,-2.568004 -7.21636,0.52 -18.85349,7.703903 -22.23411,14.952806 -1.75535,3.7707 0,6.2736 3.8357,5.9811 3.64066,-0.26 10.01183,-2.9256 14.01007,-3.9333 8.74417,-2.177902 13.81507,-4.128203 8.54911,-14.432602"
       id="path5336"
       fill="#8bd40a"
       style="fill-rule:nonzero;stroke:none;stroke-width:2.64584" />
    <path
       d="m 82.995473,75.20704 c 5.363473,5.298504 12.872373,12.839906 20.868857,13.164906 2.04787,0.09999 -0.3901,-4.193302 -3.2181,-11.539605 -2.405442,-6.27368 -2.860523,-9.459272 -7.281344,-14.725242 -5.200959,-6.176153 -9.589293,-2.145403 -12.124744,3.93322 -1.007688,2.405452 -0.162391,7.313861 1.755331,9.166721"
       id="path5338"
       fill="#00565e"
       style="fill-rule:nonzero;stroke:none;stroke-width:2.64584" />
    <path
       d="m 103.44176,163.94848 c 0.7801,-5.46102 1.52778,-13.2624 -7.508901,-15.79792 -2.145403,-0.58498 -4.550833,3.77071 -5.363502,4.94089 -2.112881,3.12062 -4.518324,6.27372 -6.631234,9.3617 -1.462769,2.11291 -5.558521,9.42682 -2.990561,11.8972 2.828031,2.69801 14.627733,-3.02297 16.935646,-4.58327 1.657821,-1.10521 5.298492,-3.96571 5.558552,-5.8186"
       id="path5340"
       fill="#9d0652"
       style="fill-rule:nonzero;stroke:none;stroke-width:2.64584" />
    <path
       d="m 161.53001,167.68668 c -0.38999,-3.08811 -4.35579,-15.50541 -6.24116,-16.80561 -3.99821,-2.76301 -15.92794,1.0727 -15.21278,3.4131 2.79549,9.23169 24.8671,41.08759 21.45394,13.39251"
       id="path5342"
       fill="#f7670e"
       style="fill-rule:nonzero;stroke:none;stroke-width:2.64584" />
    <path
       d="m 139.39344,80.212942 c 3.67314,0.553002 11.40959,-18.430905 11.8972,-22.266616 0.87758,-6.59873 -5.23348,-11.084563 -12.80737,-11.474633 -7.18383,-0.3251 -8.51661,32.343451 0.91019,33.741249"
       id="path5344"
       fill="#00b6be"
       style="fill-rule:nonzero;stroke:none;stroke-width:2.64584" />
    <path
       d="m 131.16938,88.567046 c 1.88537,0.02994 3.77072,0.260004 5.78608,0.748 -2.01536,-0.455001 -3.90071,-0.683002 -5.78608,-0.683002 z m 16.0905,53.147314 c 3.12059,-2.1129 5.52603,-4.5183 7.41135,-7.0538 0.42263,-0.813 0.8127,-1.6903 1.17026,-2.633 l 0.13005,-0.29299 c 0.48759,-1.62531 1.0077,-3.2832 1.33278,-4.9735 0.22737,-1.5278 0.32507,-3.08801 0.32507,-4.64831 v -0.16301 l 0.3576,-0.0299 0.0329,0.16301 c 0.16231,1.5602 -0.0329,3.21811 -0.32509,4.74581 -0.19498,1.2678 -0.52011,2.4705 -0.87771,3.7057 -0.13006,0.455 -0.29269,0.878 -0.45509,1.3328 l -0.098,0.325 c -0.0329,0.07 -0.0649,0.16301 -0.0649,0.22801 1.88535,-3.2181 2.95808,-6.6313 3.44565,-10.0769 0.0329,-1.5603 -0.098,-3.1856 -0.29239,-4.9084 -0.65008,-5.03841 -1.98285,-9.13421 -4.51832,-13.55501 -1.04021,-1.7878 -2.14542,-3.7382 -3.6082,-5.2335 -0.45509,-0.455 -0.91022,-0.878 -1.36524,-1.300202 -0.68263,-0.649996 -1.33273,-1.365299 -1.98288,-2.080398 l -0.84512,-0.943001 0.48763,0.292994 c -0.16272,-0.129992 -0.32509,-0.292994 -0.45512,-0.423 l -0.19498,0.228012 -0.2927,-0.228012 c -2.82802,-2.340401 -5.72104,-3.575702 -9.29672,-4.420802 -1.78779,-0.422999 -3.47812,-0.65 -5.13593,-0.747999 v 0.02994 c 1.33274,0.06999 2.69799,0.260004 4.09577,0.519998 l 0.19498,0.02994 -0.0649,0.358002 -0.19497,-0.02994 c -3.86823,-0.779999 -7.34637,-0.714999 -11.21457,-0.02994 -4.03075,0.682999 -7.28136,1.820301 -10.72701,3.835702 -0.2275,0.129991 -0.4876,0.292991 -0.7151,0.422999 -3.38064,2.145399 -5.8836,4.323299 -7.80145,7.898897 -2.79554,5.20101 -2.08041,13.45751 -2.82803,19.34111 -0.3251,2.5355 -0.7476,4.7459 -1.69032,6.9238 -0.3251,0.748 -0.7151,1.4953 -1.17022,2.2754 -0.877703,1.3978 -1.787826,2.4055 -3.088067,3.4131 -1.560301,1.1703 -3.02308,1.8204 -4.875901,2.40551 -0.292508,0.1 -0.520098,0.22801 -0.7801,0.423 -0.227499,0.22801 -0.3901,0.423 -0.5201,0.748 -0.129888,0.29299 -0.162495,0.553 -0.129888,0.878 0.03298,0.325 0.09699,0.553 0.260093,0.84499 0.09801,0.16302 0.162495,0.293 0.260095,0.42301 1.040179,0.975 2.43795,1.9179 4.095752,2.828 0.585098,0.325 1.17022,0.618 1.78784,0.943 4.550826,2.1454 8.776636,3.3156 13.685026,4.2908 8.87415,1.52779 16.96813,1.7878 25.19217,-0.455 2.37294,-0.845 4.68084,-1.9503 6.95627,-3.3156 5.36351,-3.28311 9.16671,-6.8263 11.24712,-12.90491 l 0.0649,-0.16202 c 0.4226,-1.8204 0.91021,-3.7057 1.17021,-5.5586 0.19498,-2.1454 0,-4.1607 -0.2924,-6.3061 l -0.0329,-0.195 0.35761,-0.07 0.0329,0.195 c 0.39012,2.1779 0.5851,4.1932 0.29269,6.4037 -0.0329,0.325 -0.0649,0.65 -0.098,1.0076 -0.19498,1.5928 -0.55262,3.0881 -1.07271,4.6159 l -0.0329,0.195 c -0.098,0.39 -0.19497,0.748 -0.29269,1.1052 l 0.16231,0.1 -0.0649,0.162 c -0.39012,0.91001 -0.8126,1.7553 -1.30023,2.568 -0.94272,1.7228 -2.21042,3.2181 -3.67321,4.64831 -0.74759,0.65 -1.39774,1.3003 -2.08038,1.8854 z m 7.11882,-6.5662 c -2.08038,2.763 -4.45332,4.8434 -7.34639,6.7287 -0.52009,0.423 -1.04016,0.845 -1.59279,1.2353 -0.45509,0.358 -0.94268,0.715 -1.43024,1.0402 3.41311,-1.8529 6.20867,-3.8033 8.58161,-6.3062 0.6826,-0.813 1.26772,-1.7228 1.78781,-2.698 z m 5.13595,-11.6697 c -0.45508,2.6005 -1.33277,5.136 -2.698,7.899 -0.26005,0.488 -0.5201,0.943 -0.8126,1.3977 -0.2274,0.65 -0.45511,1.2678 -0.71511,1.8529 0.65012,-0.943 1.30022,-1.9504 1.88536,-3.0231 0.74762,-1.5278 1.36526,-2.9905 1.82034,-4.4533 0.29239,-1.2352 0.45509,-2.43791 0.5201,-3.6732 z m -7.37887,-28.507812 c 1.39776,1.852899 2.568,3.900801 3.6407,5.916102 2.50295,5.266 3.64066,9.5893 4.09575,14.66031 0.0329,0.61799 0.0649,1.20269 0.0649,1.7878 0.098,0.715 0.16231,1.4628 0.22738,2.1779 0.0329,0.55299 0.0649,1.07269 0.0649,1.56029 0.16231,-1.7553 0.13006,-3.5757 0.0329,-5.5586 -0.16231,-1.6578 -0.39008,-3.1855 -0.68259,-4.6808 l -0.32509,-1.2352 c -0.16231,-0.585 -0.4226,-1.3978 -0.48761,-2.0479 -0.68259,-2.2429 -1.5603,-4.4534 -2.73051,-6.8263 -0.29267,-0.52 -0.58508,-1.072701 -0.87767,-1.592801 -0.91021,-1.3327 -1.85286,-2.698001 -2.14541,-3.2506 -0.29267,-0.260004 -0.5851,-0.585002 -0.87769,-0.910003 z M 131.98206,83.301043 c -0.8127,0.39 -2.14541,0.813 -3.57567,1.235201 0.3901,0.02994 0.78012,0.05998 1.17021,0.09999 0.5201,0.02994 1.00768,0.06999 1.46277,0.129992 1.82034,-0.390001 3.73819,-0.650001 5.8186,-0.878 0,0 0.35759,-0.02994 0.35759,-0.02994 -0.0331,0 -0.3901,0.129992 -0.35759,0.09999 -1.98288,0.39 -3.54317,0.618002 -5.03846,0.878002 0.4226,0.02994 0.81262,0.06999 1.17021,0.09999 1.20274,-0.129992 2.43794,-0.228014 3.77072,-0.292992 0,0 0.4226,0 0.4226,0 -0.0331,0 -0.45511,0.06999 -0.45511,0.06999 -0.97519,0.09999 -1.88536,0.194998 -2.698,0.292991 5.88358,0.39 4.48582,0.161999 12.64485,1.820301 -3.6082,-0.422001 -6.37117,-0.975001 -10.10938,-1.0727 -0.8127,0 -1.59282,0 -2.37294,0.02994 5.13593,0.389998 10.14189,2.080399 14.30264,5.428601 0.91017,0.715001 1.75531,1.527701 2.53545,2.405399 l 0.0649,-0.06999 c -0.78019,-0.844999 -1.6253,-1.625301 -2.56795,-2.340399 0.8126,0.650001 1.6578,1.495198 2.47045,2.4379 l -0.0329,0.02994 0.13005,0.129992 c 0.19498,0.194998 0.39008,0.390001 0.58508,0.618002 4.06324,5.0709 7.70394,13.294907 8.15903,21.941507 -0.7477,-4.7134 -2.04788,-8.6141 -4.55087,-12.8074 -1.78782,-2.9905 -4.06324,-6.598708 -7.08628,-8.484007 l 0.13005,-0.130013 -0.13005,-0.129991 c -3.08809,-3.2181 -6.50123,-4.940902 -10.75951,-6.078602 -2.11289,-0.552998 -4.09577,-0.844999 -6.07862,-0.943 1.59277,0.02994 3.18557,0.194998 4.90838,0.488001 l 0.19498,0.02994 0.0649,-0.356999 -0.19497,-0.02994 c -0.91019,-0.163012 -1.82037,-0.292992 -2.69801,-0.389999 v -0.358012 h -0.0649 v -0.260002 h -0.19497 c -2.37294,-0.02994 -4.51831,0.09999 -6.76125,0.487998 -0.71509,0.09999 -1.46277,0.228014 -2.2104,0.358001 -4.3233,0.877998 -7.83395,2.1779 -11.53965,4.485899 -0.1624,0.09999 -0.3251,0.194998 -0.5201,0.325001 -3.67318,2.275401 -6.4362,4.745903 -8.54909,8.581605 -0.32509,0.618 -0.61759,1.2352 -0.8777,1.8854 0.1624,-1.1052 0.3901,-2.2105 0.7801,-3.2832 1.62531,-3.868205 3.86824,-6.891203 7.08632,-9.556703 0.12989,-0.129992 0.7477,-0.650001 0.3251,0.454998 0,0 -0.2926,0.39 -0.2926,0.39 -2.24294,2.828101 -3.96575,4.615901 -5.59105,7.606402 2.11291,-3.283099 5.46103,-6.208602 9.45925,-8.419003 1.20272,-0.813 2.50296,-1.5928 3.21811,-1.755299 -0.12989,0.09999 -0.3576,0.228014 -0.3576,0.325 0.4876,-0.228014 1.00769,-0.422999 1.52778,-0.618001 0.9427,-0.488 1.91786,-0.975001 2.95805,-1.430299 -0.0649,-0.05998 -0.19498,-0.129992 -0.35762,-0.194998 -0.0649,-0.617998 1.0402,-1.202701 1.46279,-1.3652 1.49526,-0.584998 3.08806,-0.715001 4.68086,-0.650001 1.33275,-0.454998 2.69801,-0.844998 4.16077,-1.235197 z"
       id="path5360"
       fill="#f9c81d"
       style="fill-rule:nonzero;stroke:none;stroke-width:2.64584" />
    <path
       d="m 191.63062,87.559348 c -0.8127,-1.592805 -2.24293,-2.698004 -4.16077,-2.568004 -7.21636,0.52 -18.85349,7.703903 -22.23411,14.952806 -1.75535,3.7707 0,6.2736 3.8357,5.9811 3.64066,-0.26 10.01183,-2.9256 14.01007,-3.9333 8.74417,-2.177902 13.81507,-4.128203 8.54911,-14.432602"
       id="path5362"
       fill="#8bd40a"
       style="fill-rule:nonzero;stroke:none;stroke-width:2.64584" />
    <path
       d="m 82.995473,75.20704 c 5.363473,5.298504 12.872373,12.839906 20.868857,13.164906 2.04787,0.09999 -0.3901,-4.193302 -3.2181,-11.539605 -2.405442,-6.27368 -2.860523,-9.459272 -7.281344,-14.725242 -5.200959,-6.176153 -9.589293,-2.145403 -12.124744,3.93322 -1.007688,2.405452 -0.162391,7.313861 1.755331,9.166721"
       id="path5364"
       fill="#00565e"
       style="fill-rule:nonzero;stroke:none;stroke-width:2.64584" />
    <path
       d="m 103.44176,163.94848 c 0.7801,-5.46102 1.52778,-13.2624 -7.508901,-15.79792 -2.145403,-0.58498 -4.550833,3.77071 -5.363502,4.94089 -2.112881,3.12062 -4.518324,6.27372 -6.631234,9.3617 -1.462769,2.11291 -5.558521,9.42682 -2.990561,11.8972 2.828031,2.69801 14.627733,-3.02297 16.935646,-4.58327 1.657821,-1.10521 5.298492,-3.96571 5.558552,-5.8186"
       id="path5366"
       fill="#9d0652"
       style="fill-rule:nonzero;stroke:none;stroke-width:2.64584" />
    <path
       d="m 161.53001,167.68668 c -0.38999,-3.08811 -4.35579,-15.50541 -6.24116,-16.80561 -3.99821,-2.76301 -15.92794,1.0727 -15.21278,3.4131 2.79549,9.23169 24.8671,41.08759 21.45394,13.39251"
       id="path5368"
       fill="#f7670e"
       style="fill-rule:nonzero;stroke:none;stroke-width:2.64584" />
    <path
       d="m 139.39344,80.212942 c 3.67314,0.553002 11.40959,-18.430905 11.8972,-22.266616 0.87758,-6.59873 -5.23348,-11.084563 -12.80737,-11.474633 -7.18383,-0.3251 -8.51661,32.343451 0.91019,33.741249"
       id="path5370"
       fill="#00b6be"
       style="fill-rule:nonzero;stroke:none;stroke-width:2.64584" />
  </g>
</svg>
